# Created with Voxel Paint v2.7.0
# https://voxelpaint.online/
o 
v 9 1 9
v 9 0 9
v 9 1 10
v 9 0 10
v 10 1 10
v 10 0 10
v 10 1 9
v 10 0 9
v 10 0 10
v 9 0 10
v 10 0 9
v 9 0 9
v 10 0 9
v 9 0 9
v 10 1 9
v 9 1 9
v 9 0 10
v 10 0 10
v 9 1 10
v 10 1 10
v 6 2 9
v 6 1 9
v 6 2 10
v 6 1 10
v 7 2 10
v 7 1 10
v 7 2 9
v 7 1 9
v 7 1 10
v 6 1 10
v 7 1 9
v 6 1 9
v 6 2 10
v 7 2 10
v 6 2 9
v 7 2 9
v 7 1 9
v 6 1 9
v 7 2 9
v 6 2 9
v 6 1 10
v 7 1 10
v 6 2 10
v 7 2 10
v 9 2 9
v 9 1 9
v 9 2 10
v 9 1 10
v 10 2 10
v 10 1 10
v 10 2 9
v 10 1 9
v 10 1 9
v 9 1 9
v 10 2 9
v 9 2 9
v 9 1 10
v 10 1 10
v 9 2 10
v 10 2 10
v 9 3 8
v 9 2 8
v 9 3 9
v 9 2 9
v 10 3 9
v 10 2 9
v 10 3 8
v 10 2 8
v 10 2 9
v 9 2 9
v 10 2 8
v 9 2 8
v 10 2 8
v 9 2 8
v 10 3 8
v 9 3 8
v 8 3 9
v 8 2 9
v 8 3 10
v 8 2 10
v 9 2 10
v 8 2 10
v 9 2 9
v 8 2 9
v 9 2 9
v 8 2 9
v 9 3 9
v 8 3 9
v 8 2 10
v 9 2 10
v 8 3 10
v 9 3 10
v 11 3 10
v 11 2 10
v 11 3 9
v 11 2 9
v 11 2 10
v 10 2 10
v 11 2 9
v 10 2 9
v 11 2 9
v 10 2 9
v 11 3 9
v 10 3 9
v 10 2 10
v 11 2 10
v 10 3 10
v 11 3 10
v 9 3 10
v 9 2 10
v 9 3 11
v 9 2 11
v 10 3 11
v 10 2 11
v 10 3 10
v 10 2 10
v 10 2 11
v 9 2 11
v 10 2 10
v 9 2 10
v 9 2 11
v 10 2 11
v 9 3 11
v 10 3 11
v 8 4 8
v 8 3 8
v 8 4 9
v 8 3 9
v 9 3 9
v 8 3 9
v 9 3 8
v 8 3 8
v 9 3 8
v 8 3 8
v 9 4 8
v 8 4 8
v 10 3 8
v 9 3 8
v 10 4 8
v 9 4 8
v 11 4 9
v 11 3 9
v 11 4 8
v 11 3 8
v 11 3 9
v 10 3 9
v 11 3 8
v 10 3 8
v 11 3 8
v 10 3 8
v 11 4 8
v 10 4 8
v 7 4 9
v 7 3 9
v 7 4 10
v 7 3 10
v 8 3 10
v 7 3 10
v 8 3 9
v 7 3 9
v 8 3 9
v 7 3 9
v 8 4 9
v 7 4 9
v 7 3 10
v 8 3 10
v 7 4 10
v 8 4 10
v 12 4 10
v 12 3 10
v 12 4 9
v 12 3 9
v 12 3 10
v 11 3 10
v 12 3 9
v 11 3 9
v 12 3 9
v 11 3 9
v 12 4 9
v 11 4 9
v 11 3 10
v 12 3 10
v 11 4 10
v 12 4 10
v 8 4 10
v 8 3 10
v 8 4 11
v 8 3 11
v 9 3 11
v 8 3 11
v 9 3 10
v 8 3 10
v 8 3 11
v 9 3 11
v 8 4 11
v 9 4 11
v 9 3 11
v 10 3 11
v 9 4 11
v 10 4 11
v 11 4 11
v 11 3 11
v 11 4 10
v 11 3 10
v 11 3 11
v 10 3 11
v 11 3 10
v 10 3 10
v 10 3 11
v 11 3 11
v 10 4 11
v 11 4 11
v 7 5 8
v 7 4 8
v 7 5 9
v 7 4 9
v 8 4 9
v 7 4 9
v 8 4 8
v 7 4 8
v 7 5 9
v 8 5 9
v 7 5 8
v 8 5 8
v 8 4 8
v 7 4 8
v 8 5 8
v 7 5 8
v 9 4 8
v 8 4 8
v 9 5 8
v 8 5 8
v 10 4 8
v 9 4 8
v 10 5 8
v 9 5 8
v 11 4 8
v 10 4 8
v 11 5 8
v 10 5 8
v 12 5 9
v 12 4 9
v 12 5 8
v 12 4 8
v 12 4 9
v 11 4 9
v 12 4 8
v 11 4 8
v 11 5 9
v 12 5 9
v 11 5 8
v 12 5 8
v 12 4 8
v 11 4 8
v 12 5 8
v 11 5 8
v 6 5 9
v 6 4 9
v 6 5 10
v 6 4 10
v 7 4 10
v 6 4 10
v 7 4 9
v 6 4 9
v 6 5 10
v 7 5 10
v 6 5 9
v 7 5 9
v 7 4 9
v 6 4 9
v 7 5 9
v 6 5 9
v 6 4 10
v 7 4 10
v 6 5 10
v 7 5 10
v 13 5 10
v 13 4 10
v 13 5 9
v 13 4 9
v 13 4 10
v 12 4 10
v 13 4 9
v 12 4 9
v 12 5 10
v 13 5 10
v 12 5 9
v 13 5 9
v 13 4 9
v 12 4 9
v 13 5 9
v 12 5 9
v 12 4 10
v 13 4 10
v 12 5 10
v 13 5 10
v 7 5 10
v 7 4 10
v 7 5 11
v 7 4 11
v 8 4 11
v 7 4 11
v 8 4 10
v 7 4 10
v 7 5 11
v 8 5 11
v 7 5 10
v 8 5 10
v 7 4 11
v 8 4 11
v 7 5 11
v 8 5 11
v 8 4 11
v 9 4 11
v 8 5 11
v 9 5 11
v 9 4 11
v 10 4 11
v 9 5 11
v 10 5 11
v 10 4 11
v 11 4 11
v 10 5 11
v 11 5 11
v 12 5 11
v 12 4 11
v 12 5 10
v 12 4 10
v 12 4 11
v 11 4 11
v 12 4 10
v 11 4 10
v 11 5 11
v 12 5 11
v 11 5 10
v 12 5 10
v 11 4 11
v 12 4 11
v 11 5 11
v 12 5 11
v 8 6 8
v 8 5 8
v 8 6 9
v 8 5 9
v 8 6 9
v 9 6 9
v 8 6 8
v 9 6 8
v 9 5 8
v 8 5 8
v 9 6 8
v 8 6 8
v 10 5 8
v 9 5 8
v 10 6 8
v 9 6 8
v 11 6 9
v 11 5 9
v 11 6 8
v 11 5 8
v 10 6 9
v 11 6 9
v 10 6 8
v 11 6 8
v 11 5 8
v 10 5 8
v 11 6 8
v 10 6 8
v 7 6 9
v 7 5 9
v 7 6 10
v 7 5 10
v 7 6 10
v 8 6 10
v 7 6 9
v 8 6 9
v 8 5 9
v 7 5 9
v 8 6 9
v 7 6 9
v 7 5 10
v 8 5 10
v 7 6 10
v 8 6 10
v 12 6 10
v 12 5 10
v 12 6 9
v 12 5 9
v 11 6 10
v 12 6 10
v 11 6 9
v 12 6 9
v 12 5 9
v 11 5 9
v 12 6 9
v 11 6 9
v 11 5 10
v 12 5 10
v 11 6 10
v 12 6 10
v 8 6 10
v 8 5 10
v 8 6 11
v 8 5 11
v 8 6 11
v 9 6 11
v 8 6 10
v 9 6 10
v 8 5 11
v 9 5 11
v 8 6 11
v 9 6 11
v 9 5 11
v 10 5 11
v 9 6 11
v 10 6 11
v 11 6 11
v 11 5 11
v 11 6 10
v 11 5 10
v 10 6 11
v 11 6 11
v 10 6 10
v 11 6 10
v 10 5 11
v 11 5 11
v 10 6 11
v 11 6 11
v 9 7 8
v 9 6 8
v 9 7 9
v 9 6 9
v 10 7 9
v 10 6 9
v 10 7 8
v 10 6 8
v 9 7 9
v 10 7 9
v 9 7 8
v 10 7 8
v 10 6 8
v 9 6 8
v 10 7 8
v 9 7 8
v 8 7 9
v 8 6 9
v 8 7 10
v 8 6 10
v 8 7 10
v 9 7 10
v 8 7 9
v 9 7 9
v 9 6 9
v 8 6 9
v 9 7 9
v 8 7 9
v 8 6 10
v 9 6 10
v 8 7 10
v 9 7 10
v 11 7 10
v 11 6 10
v 11 7 9
v 11 6 9
v 10 7 10
v 11 7 10
v 10 7 9
v 11 7 9
v 11 6 9
v 10 6 9
v 11 7 9
v 10 7 9
v 10 6 10
v 11 6 10
v 10 7 10
v 11 7 10
v 9 7 10
v 9 6 10
v 9 7 11
v 9 6 11
v 10 7 11
v 10 6 11
v 10 7 10
v 10 6 10
v 9 7 11
v 10 7 11
v 9 7 10
v 10 7 10
v 9 6 11
v 10 6 11
v 9 7 11
v 10 7 11
v 9 8 9
v 9 7 9
v 9 8 10
v 9 7 10
v 10 8 10
v 10 7 10
v 10 8 9
v 10 7 9
v 10 7 9
v 9 7 9
v 10 8 9
v 9 8 9
v 9 7 10
v 10 7 10
v 9 8 10
v 10 8 10
v 12 8 9
v 12 7 9
v 12 8 10
v 12 7 10
v 13 8 10
v 13 7 10
v 13 8 9
v 13 7 9
v 13 7 10
v 12 7 10
v 13 7 9
v 12 7 9
v 12 8 10
v 13 8 10
v 12 8 9
v 13 8 9
v 13 7 9
v 12 7 9
v 13 8 9
v 12 8 9
v 12 7 10
v 13 7 10
v 12 8 10
v 13 8 10
v 9 9 9
v 9 8 9
v 9 9 10
v 9 8 10
v 10 9 10
v 10 8 10
v 10 9 9
v 10 8 9
v 9 9 10
v 10 9 10
v 9 9 9
v 10 9 9
v 10 8 9
v 9 8 9
v 10 9 9
v 9 9 9
v 9 8 10
v 10 8 10
v 9 9 10
v 10 9 10
vn -1 0 0
vn -1 0 0
vn -1 0 0
vn -1 0 0
vn 1 0 0
vn 1 0 0
vn 1 0 0
vn 1 0 0
vn 0 -1 0
vn 0 -1 0
vn 0 -1 0
vn 0 -1 0
vn 0 0 -1
vn 0 0 -1
vn 0 0 -1
vn 0 0 -1
vn 0 0 1
vn 0 0 1
vn 0 0 1
vn 0 0 1
vn -1 0 0
vn -1 0 0
vn -1 0 0
vn -1 0 0
vn 1 0 0
vn 1 0 0
vn 1 0 0
vn 1 0 0
vn 0 -1 0
vn 0 -1 0
vn 0 -1 0
vn 0 -1 0
vn 0 1 0
vn 0 1 0
vn 0 1 0
vn 0 1 0
vn 0 0 -1
vn 0 0 -1
vn 0 0 -1
vn 0 0 -1
vn 0 0 1
vn 0 0 1
vn 0 0 1
vn 0 0 1
vn -1 0 0
vn -1 0 0
vn -1 0 0
vn -1 0 0
vn 1 0 0
vn 1 0 0
vn 1 0 0
vn 1 0 0
vn 0 0 -1
vn 0 0 -1
vn 0 0 -1
vn 0 0 -1
vn 0 0 1
vn 0 0 1
vn 0 0 1
vn 0 0 1
vn -1 0 0
vn -1 0 0
vn -1 0 0
vn -1 0 0
vn 1 0 0
vn 1 0 0
vn 1 0 0
vn 1 0 0
vn 0 -1 0
vn 0 -1 0
vn 0 -1 0
vn 0 -1 0
vn 0 0 -1
vn 0 0 -1
vn 0 0 -1
vn 0 0 -1
vn -1 0 0
vn -1 0 0
vn -1 0 0
vn -1 0 0
vn 0 -1 0
vn 0 -1 0
vn 0 -1 0
vn 0 -1 0
vn 0 0 -1
vn 0 0 -1
vn 0 0 -1
vn 0 0 -1
vn 0 0 1
vn 0 0 1
vn 0 0 1
vn 0 0 1
vn 1 0 0
vn 1 0 0
vn 1 0 0
vn 1 0 0
vn 0 -1 0
vn 0 -1 0
vn 0 -1 0
vn 0 -1 0
vn 0 0 -1
vn 0 0 -1
vn 0 0 -1
vn 0 0 -1
vn 0 0 1
vn 0 0 1
vn 0 0 1
vn 0 0 1
vn -1 0 0
vn -1 0 0
vn -1 0 0
vn -1 0 0
vn 1 0 0
vn 1 0 0
vn 1 0 0
vn 1 0 0
vn 0 -1 0
vn 0 -1 0
vn 0 -1 0
vn 0 -1 0
vn 0 0 1
vn 0 0 1
vn 0 0 1
vn 0 0 1
vn -1 0 0
vn -1 0 0
vn -1 0 0
vn -1 0 0
vn 0 -1 0
vn 0 -1 0
vn 0 -1 0
vn 0 -1 0
vn 0 0 -1
vn 0 0 -1
vn 0 0 -1
vn 0 0 -1
vn 0 0 -1
vn 0 0 -1
vn 0 0 -1
vn 0 0 -1
vn 1 0 0
vn 1 0 0
vn 1 0 0
vn 1 0 0
vn 0 -1 0
vn 0 -1 0
vn 0 -1 0
vn 0 -1 0
vn 0 0 -1
vn 0 0 -1
vn 0 0 -1
vn 0 0 -1
vn -1 0 0
vn -1 0 0
vn -1 0 0
vn -1 0 0
vn 0 -1 0
vn 0 -1 0
vn 0 -1 0
vn 0 -1 0
vn 0 0 -1
vn 0 0 -1
vn 0 0 -1
vn 0 0 -1
vn 0 0 1
vn 0 0 1
vn 0 0 1
vn 0 0 1
vn 1 0 0
vn 1 0 0
vn 1 0 0
vn 1 0 0
vn 0 -1 0
vn 0 -1 0
vn 0 -1 0
vn 0 -1 0
vn 0 0 -1
vn 0 0 -1
vn 0 0 -1
vn 0 0 -1
vn 0 0 1
vn 0 0 1
vn 0 0 1
vn 0 0 1
vn -1 0 0
vn -1 0 0
vn -1 0 0
vn -1 0 0
vn 0 -1 0
vn 0 -1 0
vn 0 -1 0
vn 0 -1 0
vn 0 0 1
vn 0 0 1
vn 0 0 1
vn 0 0 1
vn 0 0 1
vn 0 0 1
vn 0 0 1
vn 0 0 1
vn 1 0 0
vn 1 0 0
vn 1 0 0
vn 1 0 0
vn 0 -1 0
vn 0 -1 0
vn 0 -1 0
vn 0 -1 0
vn 0 0 1
vn 0 0 1
vn 0 0 1
vn 0 0 1
vn -1 0 0
vn -1 0 0
vn -1 0 0
vn -1 0 0
vn 0 -1 0
vn 0 -1 0
vn 0 -1 0
vn 0 -1 0
vn 0 1 0
vn 0 1 0
vn 0 1 0
vn 0 1 0
vn 0 0 -1
vn 0 0 -1
vn 0 0 -1
vn 0 0 -1
vn 0 0 -1
vn 0 0 -1
vn 0 0 -1
vn 0 0 -1
vn 0 0 -1
vn 0 0 -1
vn 0 0 -1
vn 0 0 -1
vn 0 0 -1
vn 0 0 -1
vn 0 0 -1
vn 0 0 -1
vn 1 0 0
vn 1 0 0
vn 1 0 0
vn 1 0 0
vn 0 -1 0
vn 0 -1 0
vn 0 -1 0
vn 0 -1 0
vn 0 1 0
vn 0 1 0
vn 0 1 0
vn 0 1 0
vn 0 0 -1
vn 0 0 -1
vn 0 0 -1
vn 0 0 -1
vn -1 0 0
vn -1 0 0
vn -1 0 0
vn -1 0 0
vn 0 -1 0
vn 0 -1 0
vn 0 -1 0
vn 0 -1 0
vn 0 1 0
vn 0 1 0
vn 0 1 0
vn 0 1 0
vn 0 0 -1
vn 0 0 -1
vn 0 0 -1
vn 0 0 -1
vn 0 0 1
vn 0 0 1
vn 0 0 1
vn 0 0 1
vn 1 0 0
vn 1 0 0
vn 1 0 0
vn 1 0 0
vn 0 -1 0
vn 0 -1 0
vn 0 -1 0
vn 0 -1 0
vn 0 1 0
vn 0 1 0
vn 0 1 0
vn 0 1 0
vn 0 0 -1
vn 0 0 -1
vn 0 0 -1
vn 0 0 -1
vn 0 0 1
vn 0 0 1
vn 0 0 1
vn 0 0 1
vn -1 0 0
vn -1 0 0
vn -1 0 0
vn -1 0 0
vn 0 -1 0
vn 0 -1 0
vn 0 -1 0
vn 0 -1 0
vn 0 1 0
vn 0 1 0
vn 0 1 0
vn 0 1 0
vn 0 0 1
vn 0 0 1
vn 0 0 1
vn 0 0 1
vn 0 0 1
vn 0 0 1
vn 0 0 1
vn 0 0 1
vn 0 0 1
vn 0 0 1
vn 0 0 1
vn 0 0 1
vn 0 0 1
vn 0 0 1
vn 0 0 1
vn 0 0 1
vn 1 0 0
vn 1 0 0
vn 1 0 0
vn 1 0 0
vn 0 -1 0
vn 0 -1 0
vn 0 -1 0
vn 0 -1 0
vn 0 1 0
vn 0 1 0
vn 0 1 0
vn 0 1 0
vn 0 0 1
vn 0 0 1
vn 0 0 1
vn 0 0 1
vn -1 0 0
vn -1 0 0
vn -1 0 0
vn -1 0 0
vn 0 1 0
vn 0 1 0
vn 0 1 0
vn 0 1 0
vn 0 0 -1
vn 0 0 -1
vn 0 0 -1
vn 0 0 -1
vn 0 0 -1
vn 0 0 -1
vn 0 0 -1
vn 0 0 -1
vn 1 0 0
vn 1 0 0
vn 1 0 0
vn 1 0 0
vn 0 1 0
vn 0 1 0
vn 0 1 0
vn 0 1 0
vn 0 0 -1
vn 0 0 -1
vn 0 0 -1
vn 0 0 -1
vn -1 0 0
vn -1 0 0
vn -1 0 0
vn -1 0 0
vn 0 1 0
vn 0 1 0
vn 0 1 0
vn 0 1 0
vn 0 0 -1
vn 0 0 -1
vn 0 0 -1
vn 0 0 -1
vn 0 0 1
vn 0 0 1
vn 0 0 1
vn 0 0 1
vn 1 0 0
vn 1 0 0
vn 1 0 0
vn 1 0 0
vn 0 1 0
vn 0 1 0
vn 0 1 0
vn 0 1 0
vn 0 0 -1
vn 0 0 -1
vn 0 0 -1
vn 0 0 -1
vn 0 0 1
vn 0 0 1
vn 0 0 1
vn 0 0 1
vn -1 0 0
vn -1 0 0
vn -1 0 0
vn -1 0 0
vn 0 1 0
vn 0 1 0
vn 0 1 0
vn 0 1 0
vn 0 0 1
vn 0 0 1
vn 0 0 1
vn 0 0 1
vn 0 0 1
vn 0 0 1
vn 0 0 1
vn 0 0 1
vn 1 0 0
vn 1 0 0
vn 1 0 0
vn 1 0 0
vn 0 1 0
vn 0 1 0
vn 0 1 0
vn 0 1 0
vn 0 0 1
vn 0 0 1
vn 0 0 1
vn 0 0 1
vn -1 0 0
vn -1 0 0
vn -1 0 0
vn -1 0 0
vn 1 0 0
vn 1 0 0
vn 1 0 0
vn 1 0 0
vn 0 1 0
vn 0 1 0
vn 0 1 0
vn 0 1 0
vn 0 0 -1
vn 0 0 -1
vn 0 0 -1
vn 0 0 -1
vn -1 0 0
vn -1 0 0
vn -1 0 0
vn -1 0 0
vn 0 1 0
vn 0 1 0
vn 0 1 0
vn 0 1 0
vn 0 0 -1
vn 0 0 -1
vn 0 0 -1
vn 0 0 -1
vn 0 0 1
vn 0 0 1
vn 0 0 1
vn 0 0 1
vn 1 0 0
vn 1 0 0
vn 1 0 0
vn 1 0 0
vn 0 1 0
vn 0 1 0
vn 0 1 0
vn 0 1 0
vn 0 0 -1
vn 0 0 -1
vn 0 0 -1
vn 0 0 -1
vn 0 0 1
vn 0 0 1
vn 0 0 1
vn 0 0 1
vn -1 0 0
vn -1 0 0
vn -1 0 0
vn -1 0 0
vn 1 0 0
vn 1 0 0
vn 1 0 0
vn 1 0 0
vn 0 1 0
vn 0 1 0
vn 0 1 0
vn 0 1 0
vn 0 0 1
vn 0 0 1
vn 0 0 1
vn 0 0 1
vn -1 0 0
vn -1 0 0
vn -1 0 0
vn -1 0 0
vn 1 0 0
vn 1 0 0
vn 1 0 0
vn 1 0 0
vn 0 0 -1
vn 0 0 -1
vn 0 0 -1
vn 0 0 -1
vn 0 0 1
vn 0 0 1
vn 0 0 1
vn 0 0 1
vn -1 0 0
vn -1 0 0
vn -1 0 0
vn -1 0 0
vn 1 0 0
vn 1 0 0
vn 1 0 0
vn 1 0 0
vn 0 -1 0
vn 0 -1 0
vn 0 -1 0
vn 0 -1 0
vn 0 1 0
vn 0 1 0
vn 0 1 0
vn 0 1 0
vn 0 0 -1
vn 0 0 -1
vn 0 0 -1
vn 0 0 -1
vn 0 0 1
vn 0 0 1
vn 0 0 1
vn 0 0 1
vn -1 0 0
vn -1 0 0
vn -1 0 0
vn -1 0 0
vn 1 0 0
vn 1 0 0
vn 1 0 0
vn 1 0 0
vn 0 1 0
vn 0 1 0
vn 0 1 0
vn 0 1 0
vn 0 0 -1
vn 0 0 -1
vn 0 0 -1
vn 0 0 -1
vn 0 0 1
vn 0 0 1
vn 0 0 1
vn 0 0 1
f 1//1 2//2 3//3
f 3//3 2//2 4//4
f 5//5 6//6 7//7
f 7//7 6//6 8//8
f 9//9 10//10 11//11
f 11//11 10//10 12//12
f 13//13 14//14 15//15
f 15//15 14//14 16//16
f 17//17 18//18 19//19
f 19//19 18//18 20//20
f 21//21 22//22 23//23
f 23//23 22//22 24//24
f 25//25 26//26 27//27
f 27//27 26//26 28//28
f 29//29 30//30 31//31
f 31//31 30//30 32//32
f 33//33 34//34 35//35
f 35//35 34//34 36//36
f 37//37 38//38 39//39
f 39//39 38//38 40//40
f 41//41 42//42 43//43
f 43//43 42//42 44//44
f 45//45 46//46 47//47
f 47//47 46//46 48//48
f 49//49 50//50 51//51
f 51//51 50//50 52//52
f 53//53 54//54 55//55
f 55//55 54//54 56//56
f 57//57 58//58 59//59
f 59//59 58//58 60//60
f 61//61 62//62 63//63
f 63//63 62//62 64//64
f 65//65 66//66 67//67
f 67//67 66//66 68//68
f 69//69 70//70 71//71
f 71//71 70//70 72//72
f 73//73 74//74 75//75
f 75//75 74//74 76//76
f 77//77 78//78 79//79
f 79//79 78//78 80//80
f 81//81 82//82 83//83
f 83//83 82//82 84//84
f 85//85 86//86 87//87
f 87//87 86//86 88//88
f 89//89 90//90 91//91
f 91//91 90//90 92//92
f 93//93 94//94 95//95
f 95//95 94//94 96//96
f 97//97 98//98 99//99
f 99//99 98//98 100//100
f 101//101 102//102 103//103
f 103//103 102//102 104//104
f 105//105 106//106 107//107
f 107//107 106//106 108//108
f 109//109 110//110 111//111
f 111//111 110//110 112//112
f 113//113 114//114 115//115
f 115//115 114//114 116//116
f 117//117 118//118 119//119
f 119//119 118//118 120//120
f 121//121 122//122 123//123
f 123//123 122//122 124//124
f 125//125 126//126 127//127
f 127//127 126//126 128//128
f 129//129 130//130 131//131
f 131//131 130//130 132//132
f 133//133 134//134 135//135
f 135//135 134//134 136//136
f 137//137 138//138 139//139
f 139//139 138//138 140//140
f 141//141 142//142 143//143
f 143//143 142//142 144//144
f 145//145 146//146 147//147
f 147//147 146//146 148//148
f 149//149 150//150 151//151
f 151//151 150//150 152//152
f 153//153 154//154 155//155
f 155//155 154//154 156//156
f 157//157 158//158 159//159
f 159//159 158//158 160//160
f 161//161 162//162 163//163
f 163//163 162//162 164//164
f 165//165 166//166 167//167
f 167//167 166//166 168//168
f 169//169 170//170 171//171
f 171//171 170//170 172//172
f 173//173 174//174 175//175
f 175//175 174//174 176//176
f 177//177 178//178 179//179
f 179//179 178//178 180//180
f 181//181 182//182 183//183
f 183//183 182//182 184//184
f 185//185 186//186 187//187
f 187//187 186//186 188//188
f 189//189 190//190 191//191
f 191//191 190//190 192//192
f 193//193 194//194 195//195
f 195//195 194//194 196//196
f 197//197 198//198 199//199
f 199//199 198//198 200//200
f 201//201 202//202 203//203
f 203//203 202//202 204//204
f 205//205 206//206 207//207
f 207//207 206//206 208//208
f 209//209 210//210 211//211
f 211//211 210//210 212//212
f 213//213 214//214 215//215
f 215//215 214//214 216//216
f 217//217 218//218 219//219
f 219//219 218//218 220//220
f 221//221 222//222 223//223
f 223//223 222//222 224//224
f 225//225 226//226 227//227
f 227//227 226//226 228//228
f 229//229 230//230 231//231
f 231//231 230//230 232//232
f 233//233 234//234 235//235
f 235//235 234//234 236//236
f 237//237 238//238 239//239
f 239//239 238//238 240//240
f 241//241 242//242 243//243
f 243//243 242//242 244//244
f 245//245 246//246 247//247
f 247//247 246//246 248//248
f 249//249 250//250 251//251
f 251//251 250//250 252//252
f 253//253 254//254 255//255
f 255//255 254//254 256//256
f 257//257 258//258 259//259
f 259//259 258//258 260//260
f 261//261 262//262 263//263
f 263//263 262//262 264//264
f 265//265 266//266 267//267
f 267//267 266//266 268//268
f 269//269 270//270 271//271
f 271//271 270//270 272//272
f 273//273 274//274 275//275
f 275//275 274//274 276//276
f 277//277 278//278 279//279
f 279//279 278//278 280//280
f 281//281 282//282 283//283
f 283//283 282//282 284//284
f 285//285 286//286 287//287
f 287//287 286//286 288//288
f 289//289 290//290 291//291
f 291//291 290//290 292//292
f 293//293 294//294 295//295
f 295//295 294//294 296//296
f 297//297 298//298 299//299
f 299//299 298//298 300//300
f 301//301 302//302 303//303
f 303//303 302//302 304//304
f 305//305 306//306 307//307
f 307//307 306//306 308//308
f 309//309 310//310 311//311
f 311//311 310//310 312//312
f 313//313 314//314 315//315
f 315//315 314//314 316//316
f 317//317 318//318 319//319
f 319//319 318//318 320//320
f 321//321 322//322 323//323
f 323//323 322//322 324//324
f 325//325 326//326 327//327
f 327//327 326//326 328//328
f 329//329 330//330 331//331
f 331//331 330//330 332//332
f 333//333 334//334 335//335
f 335//335 334//334 336//336
f 337//337 338//338 339//339
f 339//339 338//338 340//340
f 341//341 342//342 343//343
f 343//343 342//342 344//344
f 345//345 346//346 347//347
f 347//347 346//346 348//348
f 349//349 350//350 351//351
f 351//351 350//350 352//352
f 353//353 354//354 355//355
f 355//355 354//354 356//356
f 357//357 358//358 359//359
f 359//359 358//358 360//360
f 361//361 362//362 363//363
f 363//363 362//362 364//364
f 365//365 366//366 367//367
f 367//367 366//366 368//368
f 369//369 370//370 371//371
f 371//371 370//370 372//372
f 373//373 374//374 375//375
f 375//375 374//374 376//376
f 377//377 378//378 379//379
f 379//379 378//378 380//380
f 381//381 382//382 383//383
f 383//383 382//382 384//384
f 385//385 386//386 387//387
f 387//387 386//386 388//388
f 389//389 390//390 391//391
f 391//391 390//390 392//392
f 393//393 394//394 395//395
f 395//395 394//394 396//396
f 397//397 398//398 399//399
f 399//399 398//398 400//400
f 401//401 402//402 403//403
f 403//403 402//402 404//404
f 405//405 406//406 407//407
f 407//407 406//406 408//408
f 409//409 410//410 411//411
f 411//411 410//410 412//412
f 413//413 414//414 415//415
f 415//415 414//414 416//416
f 417//417 418//418 419//419
f 419//419 418//418 420//420
f 421//421 422//422 423//423
f 423//423 422//422 424//424
f 425//425 426//426 427//427
f 427//427 426//426 428//428
f 429//429 430//430 431//431
f 431//431 430//430 432//432
f 433//433 434//434 435//435
f 435//435 434//434 436//436
f 437//437 438//438 439//439
f 439//439 438//438 440//440
f 441//441 442//442 443//443
f 443//443 442//442 444//444
f 445//445 446//446 447//447
f 447//447 446//446 448//448
f 449//449 450//450 451//451
f 451//451 450//450 452//452
f 453//453 454//454 455//455
f 455//455 454//454 456//456
f 457//457 458//458 459//459
f 459//459 458//458 460//460
f 461//461 462//462 463//463
f 463//463 462//462 464//464
f 465//465 466//466 467//467
f 467//467 466//466 468//468
f 469//469 470//470 471//471
f 471//471 470//470 472//472
f 473//473 474//474 475//475
f 475//475 474//474 476//476
f 477//477 478//478 479//479
f 479//479 478//478 480//480
f 481//481 482//482 483//483
f 483//483 482//482 484//484
f 485//485 486//486 487//487
f 487//487 486//486 488//488
f 489//489 490//490 491//491
f 491//491 490//490 492//492
f 493//493 494//494 495//495
f 495//495 494//494 496//496
f 497//497 498//498 499//499
f 499//499 498//498 500//500
f 501//501 502//502 503//503
f 503//503 502//502 504//504
f 505//505 506//506 507//507
f 507//507 506//506 508//508
f 509//509 510//510 511//511
f 511//511 510//510 512//512
f 513//513 514//514 515//515
f 515//515 514//514 516//516
f 517//517 518//518 519//519
f 519//519 518//518 520//520
f 521//521 522//522 523//523
f 523//523 522//522 524//524
f 525//525 526//526 527//527
f 527//527 526//526 528//528
f 529//529 530//530 531//531
f 531//531 530//530 532//532
f 533//533 534//534 535//535
f 535//535 534//534 536//536
f 537//537 538//538 539//539
f 539//539 538//538 540//540
f 541//541 542//542 543//543
f 543//543 542//542 544//544
f 545//545 546//546 547//547
f 547//547 546//546 548//548
f 549//549 550//550 551//551
f 551//551 550//550 552//552
